# xmcd
#
# Track frame offsets:
#	150
#	892
#	38217
#	54307
#	66430
#	78742
#	85515
#	100075
#	107102
#	108915
#	123840
#	143652
#	166392
#	224432
#	248130
#	258465
#	285852
#
# Disc length: 4440 seconds
#
# Revision: 1
# Processed by: cddbd v1.5.1PL0 Copyright (c) Steve Scherf et al.
# Submitted via: CDex 1.50Beta5
#
DISCID=da115611
DTITLE=愛河里花子 - ジャングルはいつもハレのちグゥ 第1巻
DYEAR=2001
DGENRE=
TTITLE0=グゥからのお願い
TTITLE1=紅茶ずびずび
TTITLE2=眠れないの
TTITLE3=ベルの都市伝説
TTITLE4=もっと眠れないの
TTITLE5=アシオの都市伝説
TTITLE6=ますます眠れないの
TTITLE7=シャロンの都市伝説
TTITLE8=一生眠れないの
TTITLE9=古今東西
TTITLE10=マツゲがない
TTITLE11=出会い
TTITLE12=別れ
TTITLE13=ばいばい
TTITLE14=やっほー
TTITLE15=宴会といえばこれでしょ
TTITLE16=好みのタイプは?
EXTD=
EXTT0=
EXTT1=
EXTT2=
EXTT3=
EXTT4=
EXTT5=
EXTT6=
EXTT7=
EXTT8=
EXTT9=
EXTT10=
EXTT11=
EXTT12=
EXTT13=
EXTT14=
EXTT15=
EXTT16=
PLAYORDER=
